<svg width="450" height="789" viewBox="0 0 450 789" fill="none" xmlns="http://www.w3.org/2000/svg">
<mask id="mask0_305_83391" style="mask-type:luminance" maskUnits="userSpaceOnUse" x="0" y="0" width="450" height="789">
<path d="M450 0H0V788.55H450V0Z" fill="white"/>
</mask>
<g mask="url(#mask0_305_83391)">
<path d="M-89.8237 239.778C-71.3779 248.107 -36.8237 287.216 94.3847 309.657C135.689 316.721 176.985 292.944 215.118 277.274C218.16 277.159 219.697 280.675 217.472 282.345C216.222 283.284 210.726 285.673 208.847 286.542C198.897 291.148 185.297 295.264 176.272 300.604C175.73 300.924 175.351 300.516 175.739 301.643L220.422 301.509C220.401 301.643 220.493 301.801 220.497 301.962C220.51 303.513 221.097 305.768 221.38 307.406C221.397 307.495 220.939 307.81 220.964 307.93L208.797 308.665C189.33 311.662 169.451 312.046 149.889 314.016C144.993 314.509 141.172 316.148 136.655 317.721L169.647 326.982L200.022 336.792L200.097 337.246L198.939 342.51C198.797 342.471 198.593 342.617 198.447 342.579C194.139 341.413 188.61 340.351 184.143 339.436C182.701 339.139 172.38 336.973 171.997 337.42L185.818 354.525C183.176 354.829 183.014 355.421 181.126 356.564C180.843 356.737 179.947 356.595 179.651 356.768C171.818 348.55 163.326 341.086 152.585 336.281C150.051 335.146 146.605 333.78 143.976 332.845C118.655 323.854 91.0722 325.443 64.7221 329.509L89.1805 350.247C89.1805 350.397 89.2638 350.551 89.2555 350.701C89.1597 352.036 85.8221 354.079 86.0596 355.779C85.9055 355.691 85.2346 356.002 85.0763 355.914C71.943 348.411 60.1805 337.951 45.2971 333.58C48.4513 343.991 50.4638 355.648 55.343 365.486C61.818 378.548 73.8763 390.02 82.0346 402.255C82.1138 402.374 82.0305 402.59 82.1096 402.709C80.2221 402.694 78.4388 405.264 77.5638 405.656C77.218 405.81 76.5221 405.729 76.0888 405.86L56.5013 387.054L54.9471 386.977L57.793 441.782C57.5346 441.736 57.118 441.94 56.8097 441.917C54.8472 441.767 52.7638 441.852 50.8388 442.279L44.418 399.566C41.8555 402.54 40.193 406.752 38.6138 410.327C34.1596 420.418 30.5888 430.868 26.2305 441.005C24.2471 444.883 19.8096 443.698 19.7555 439.42C19.743 438.601 20.2055 437.485 20.4346 436.642C26.7763 413.428 42.5096 388.747 35.7221 364.336C13.1763 283.268 -77.3695 269.422 -109.645 262.066C-109.645 262.066 -90.6445 239.405 -89.8195 239.778H-89.8237Z" fill="#914F2B"/>
<path d="M62.252 303.443C76.9853 303.713 90.5353 298.596 90.5353 298.596L94.1811 301.82C94.1811 301.82 87.6895 305.313 75.0145 310.119C62.3353 314.924 62.2561 303.447 62.2561 303.447L62.252 303.443Z" fill="#914F2B"/>
<path d="M50.3465 442.345L56.5881 499.459C57.7006 499.474 57.6881 498.881 57.8465 498.104C58.4631 495.034 57.8131 488.324 57.8506 484.793C57.9923 471.6 58.0381 458.096 57.2798 444.853C57.2214 443.865 56.9256 442.895 56.809 441.914C57.1131 441.937 57.534 441.733 57.7923 441.779C61.4923 442.422 70.0673 450.186 72.5798 453.048C91.6256 474.739 87.5298 503.31 69.1006 523.947C67.8131 525.39 60.2089 532.992 58.8173 532.938C57.6423 532.892 49.5548 526.148 48.234 524.889C29.0548 506.607 20.459 479.891 35.1173 456.753C37.7256 452.636 45.4298 443.799 50.3506 442.345H50.3465Z" fill="#ABDA38"/>
<path d="M76.08 405.859C76.5133 405.729 77.2092 405.813 77.555 405.656C86.7508 420.372 95.3758 435.48 105.355 449.765C105.597 450.108 107.638 453.355 108.238 452.435C100.301 435.565 92.4216 418.413 82.1008 402.709C82.0216 402.589 82.1091 402.374 82.0258 402.254C88.7925 401.877 95.3425 403.574 101.409 406.148C127.505 417.221 136.301 443.009 130.58 467.898C130.005 470.391 126.072 482.722 124.38 483.872C123.722 484.318 119.142 482.891 117.967 482.568C82.005 472.668 60.9175 441.944 75.555 408.122C75.8842 407.36 76.4008 406.787 76.08 405.859Z" fill="#289649"/>
<path d="M220.426 301.505C220.776 299.039 227.251 290.156 229.28 287.986C248.197 267.749 279.876 267.672 303.093 281.503C304.776 282.507 313.797 288.99 314.03 290.19C314.547 292.833 304.497 304.414 302.105 306.672C283.268 324.458 253.268 329.718 230.038 315.96C227.955 314.725 221.376 309.996 220.963 307.923C220.938 307.807 221.397 307.492 221.38 307.399C230.184 305.618 239.197 304.564 248.005 302.79C257.401 300.901 266.643 298.043 276.134 296.584L281.118 294.745C279.751 294.784 278.168 294.538 276.822 294.642C260.847 295.877 245.851 297.92 230.101 300.643C226.93 301.194 223.668 301.413 220.497 301.952C220.497 301.794 220.405 301.632 220.422 301.498L220.426 301.505Z" fill="#ABDA38"/>
<path d="M200.019 336.793C203.273 335.262 205.977 333.081 209.344 331.665C217.169 328.371 225.731 327.14 234.289 327.56C262.21 328.929 280.098 352.086 282.71 376.332C267.489 382.638 248.089 385.143 231.914 380.699C224.919 378.779 220.139 375.644 214.248 371.935C211.435 370.161 209.794 367.387 207.102 365.036C207.927 364.613 206.952 363.605 206.664 363.132C202.773 356.684 199.102 350.14 198.439 342.58C198.585 342.618 198.785 342.472 198.931 342.51C204.144 343.953 209.885 347.085 215.169 348.697L252.669 361.062C253.119 360.52 251.031 359.308 250.573 359.046C240.177 353.056 227.381 347.643 216.077 343.199C210.789 341.121 205.339 339.394 200.085 337.251L200.01 336.797L200.019 336.793Z" fill="#AADA38"/>
<path d="M207.105 365.035C209.797 367.386 211.434 370.16 214.251 371.934C215.655 375.735 218.288 378.951 219.797 382.737C226.597 399.796 221.63 421.449 210.322 436.026C209.072 437.635 206.468 441.159 204.293 440.836C202.422 440.559 193.988 435.095 192.093 433.68C183.172 427.028 174.738 417.24 171.222 407.098C172.759 405.556 179.493 404.978 179.593 402.932C179.697 400.831 176.043 390.478 175.018 387.904C173.818 384.895 168.968 377.32 169.026 374.931C169.043 374.238 172.055 367.047 172.618 365.974C173.288 364.693 178.788 357.268 179.647 356.767C179.938 356.594 180.834 356.737 181.122 356.564L191.93 391.89L195.805 402.87L198.634 408.872C196.001 390.462 191.326 372.415 186.309 354.451C192.063 354.309 202.938 361.388 207.109 365.028L207.105 365.035Z" fill="#289649"/>
<path d="M56.8063 441.917C56.9229 442.894 57.2188 443.867 57.2771 444.856C58.0354 458.095 57.9896 471.603 57.8479 484.795C57.8104 488.327 58.4604 495.037 57.8437 498.107C57.6896 498.884 57.6979 499.481 56.5854 499.461L50.3438 442.348C50.4979 442.301 50.6771 442.317 50.8354 442.278C52.7604 441.851 54.8438 441.77 56.8063 441.917Z" fill="#6EBD2F"/>
<path d="M169.027 374.932C168.973 377.321 173.818 384.897 175.018 387.905C176.043 390.479 179.698 400.832 179.593 402.933C179.489 404.976 172.76 405.557 171.223 407.1C156.252 410.097 140.677 411.335 125.794 407.35C102.339 401.071 85.456 378.218 85.0685 355.915C85.2226 356.003 85.8935 355.691 86.0518 355.78C102.127 364.913 118.498 373.755 135.314 381.83C136.502 381.98 143.673 385.851 144.081 385.335C144.535 384.77 143.164 384.173 142.806 383.935C134.835 378.629 126.814 372.789 118.635 367.741C109.027 361.813 98.6352 356.896 89.2435 350.701C89.256 350.555 89.1685 350.397 89.1685 350.247C110.073 341.114 138.01 344.046 154.881 359.039C159.764 363.378 163.335 368.607 167.156 373.712C167.677 374.409 167.739 375.19 169.018 374.932H169.027Z" fill="#AADA38"/>
<path d="M89.2488 350.702C98.6405 356.896 109.032 361.813 118.64 367.742C126.82 372.786 134.84 378.63 142.811 383.935C143.17 384.174 144.54 384.77 144.086 385.336C143.674 385.851 136.507 381.981 135.32 381.831C118.503 373.755 102.132 364.918 86.0571 355.781C85.8196 354.08 89.1571 352.037 89.253 350.702H89.2488Z" fill="#6EBD2F"/>
<path d="M220.496 301.958C223.667 301.419 226.929 301.2 230.1 300.65C245.85 297.926 260.85 295.879 276.821 294.648C278.167 294.544 279.746 294.787 281.117 294.752L276.134 296.591C266.642 298.045 257.4 300.904 248.004 302.797C239.196 304.57 230.184 305.625 221.379 307.406C221.1 305.767 220.513 303.512 220.496 301.962V301.958Z" fill="#6EBD2F"/>
<path d="M200.094 337.247C205.348 339.39 210.798 341.117 216.085 343.195C227.389 347.639 240.185 353.052 250.581 359.042C251.035 359.304 253.123 360.52 252.677 361.058L215.177 348.693C209.894 347.085 204.152 343.949 198.939 342.506L200.098 337.243L200.094 337.247Z" fill="#6EBD2F"/>
<path d="M82.1005 402.709C92.4213 418.414 100.301 435.565 108.238 452.436C107.638 453.355 105.596 450.108 105.355 449.766C95.3755 435.481 86.7505 420.372 77.5547 405.656C78.4297 405.264 80.213 402.694 82.1005 402.709Z" fill="#036134"/>
<path d="M185.813 354.524C185.976 354.505 186.142 354.459 186.305 354.455C191.321 372.418 195.996 390.462 198.63 408.876L195.801 402.874L191.926 391.893L181.117 356.567C183.005 355.425 183.171 354.832 185.809 354.528L185.813 354.524Z" fill="#036134"/>
<path d="M92.5873 303.54C96.4498 299.223 101.416 295.803 105.771 291.89C115.441 283.206 124.587 273.973 133.487 264.612C132.616 263.923 132.787 264.52 132.271 264.889C124.958 270.152 117.458 275.996 110.45 281.617C103.108 287.504 95.9831 293.679 88.9206 299.846C88.7831 299.646 87.9748 299.461 87.8873 299.288C87.8664 299.242 88.1581 298.73 88.054 298.319C84.3998 283.645 92.2623 266.336 103.837 256.16C117.904 243.794 139.529 240.012 158.233 242.613C159.421 243.702 157.958 256.04 157.571 258.137C154.1 276.893 142.7 294.91 122.983 302.262C115.141 305.186 100.166 307.606 92.5831 303.54H92.5873Z" fill="#279649"/>
<path d="M88.9202 299.846C95.9827 293.679 103.108 287.504 110.449 281.617C117.458 276 124.958 270.152 132.27 264.889C132.787 264.52 132.616 263.924 133.487 264.612C124.587 273.973 115.441 283.206 105.77 291.89C101.416 295.799 96.4493 299.219 92.5868 303.54C92.4743 303.478 92.3535 303.42 92.241 303.355C90.241 302.128 90.066 301.524 88.916 299.846H88.9202Z" fill="#036134"/>
<path d="M146.024 418.473C148.499 423.697 152.332 428.326 155.416 433.277C162.261 444.273 168.428 455.673 174.316 467.134C173.253 467.584 173.599 467.045 173.207 466.549C167.636 459.512 162.057 451.852 156.891 444.546C151.482 436.89 146.37 429.007 141.316 421.146C141.12 421.308 140.274 421.281 140.136 421.427C140.103 421.466 140.232 422.043 140.007 422.42C131.995 435.847 134.466 454.826 142.724 467.776C152.761 483.512 172.799 492.788 191.903 495.062C193.395 494.304 195.695 481.842 195.949 479.688C198.216 460.424 192.499 439.841 175.411 427.56C168.616 422.678 154.682 416.449 146.024 418.476V418.473Z" fill="#AADA38"/>
<path d="M141.316 421.143C146.371 429.003 151.483 436.89 156.891 444.542C162.054 451.848 167.637 459.508 173.208 466.545C173.6 467.041 173.254 467.58 174.316 467.13C168.429 455.669 162.262 444.269 155.416 433.273C152.333 428.322 148.504 423.693 146.025 418.469C145.896 418.5 145.758 418.526 145.633 418.561C143.304 419.246 142.95 419.792 141.316 421.139V421.143Z" fill="#6EBD2F"/>
<path d="M245.9 483.033C242.021 484.545 238.571 486.911 234.888 488.804C226.709 493.009 218.242 496.787 209.73 500.384C209.405 499.711 209.8 499.934 210.171 499.692C215.413 496.252 221.117 492.809 226.559 489.627C232.259 486.292 238.121 483.148 243.967 480.043C243.85 479.92 243.88 479.386 243.771 479.297C243.742 479.274 243.317 479.351 243.038 479.209C233.2 474.045 219.175 475.423 209.546 480.505C197.842 486.676 190.817 499.199 188.963 511.195C189.509 512.142 198.684 513.7 200.271 513.881C214.467 515.485 229.709 512.076 238.925 501.435C242.592 497.206 247.313 488.492 245.896 483.029L245.9 483.033Z" fill="#279649"/>
<path d="M243.971 480.048C238.125 483.157 232.259 486.3 226.563 489.632C221.121 492.813 215.421 496.253 210.175 499.696C209.804 499.939 209.409 499.715 209.734 500.389C218.246 496.791 226.713 493.013 234.892 488.808C238.575 486.915 242.025 484.545 245.904 483.037C245.884 482.956 245.867 482.868 245.838 482.787C245.354 481.314 244.954 481.087 243.975 480.048H243.971Z" fill="#036134"/>
<path d="M383.797 358.268C383.701 354.097 382.51 349.977 381.926 345.829C380.622 336.626 379.901 327.324 379.385 318.051C380.239 318.021 379.843 318.298 379.956 318.732C381.597 324.931 383.051 331.548 384.335 337.827C385.676 344.402 386.751 351.054 387.789 357.671C387.972 357.614 388.535 357.852 388.672 357.787C388.706 357.771 388.793 357.344 389.06 357.148C398.543 350.131 402.614 336.657 400.943 325.769C398.914 312.534 388.164 301.092 375.931 294.629C374.693 294.76 369.368 302.593 368.543 303.986C361.181 316.432 358.822 331.829 366.664 344.544C369.785 349.6 377.326 357.41 383.793 358.268H383.797Z" fill="#AADA38"/>
<path d="M387.793 357.675C386.751 351.054 385.68 344.402 384.339 337.83C383.055 331.555 381.601 324.934 379.96 318.736C379.843 318.297 380.243 318.024 379.389 318.055C379.905 327.327 380.626 336.626 381.93 345.833C382.518 349.976 383.709 354.097 383.801 358.271C383.897 358.283 383.997 358.302 384.097 358.31C385.88 358.448 386.284 358.167 387.797 357.679L387.793 357.675Z" fill="#6EBD2F"/>
<path d="M385.13 465.258C381.972 468.24 379.618 471.914 376.826 475.2C370.622 482.502 363.935 489.492 357.126 496.321C356.505 495.779 356.997 495.848 357.251 495.467C360.897 490.046 364.993 484.452 368.947 479.212C373.089 473.722 377.485 468.359 381.876 463.038C381.705 462.961 381.493 462.423 381.347 462.376C381.31 462.365 380.918 462.607 380.58 462.569C368.514 461.23 355.247 467.978 347.993 476.704C339.18 487.307 337.86 502.404 341.422 514.996C342.389 515.724 352.176 513.746 353.83 513.315C368.61 509.456 382.168 500.23 386.51 486.157C388.235 480.563 388.993 470.121 385.13 465.254V465.258Z" fill="#AADA38"/>
<path d="M381.876 463.043C377.484 468.364 373.093 473.727 368.947 479.217C364.993 484.457 360.893 490.051 357.251 495.472C356.993 495.853 356.501 495.784 357.126 496.326C363.934 489.497 370.622 482.507 376.826 475.204C379.618 471.915 381.972 468.245 385.13 465.263C385.072 465.19 385.018 465.113 384.955 465.044C383.814 463.77 383.314 463.701 381.876 463.047V463.043Z" fill="#6EBD2F"/>
<path d="M542.864 498.543C463.193 478.752 403.647 449.081 378.739 391.987C373.968 381.049 371.447 369.365 367.08 358.28C364.418 356.753 361.222 358.08 361.951 361.243L371.184 394.884L372.476 402.313C368.68 398.601 365.014 394.734 361.551 390.756C355.334 383.623 348.243 375.128 342.664 367.606C341.418 368.776 339.514 370.073 337.826 370.607C337.693 370.65 337.618 370.865 337.501 370.884C350.993 391.133 364.376 411.77 381.605 429.583L339.284 415.533C339.234 415.74 338.405 416.114 338.305 416.364C337.489 418.434 337.455 419.126 335.597 420.892C336.118 421.538 336.826 421.908 337.568 422.292C345.493 426.401 354.801 430.299 363.076 433.954C369.447 436.766 375.905 439.529 382.476 441.925C382.989 442.249 383.018 442.514 382.439 442.772C380.934 443.445 376.968 444.322 375.139 444.749C346.789 451.405 321.064 448.608 292.476 445.888L291.826 446.442C292.155 448.089 291.793 449.762 291.297 451.344C291.472 451.378 291.722 451.913 291.897 451.944C306.018 454.664 320.276 457.484 334.597 459.112C335.068 459.165 338.539 458.808 337.797 459.619L320.818 471.277C321.034 471.435 321.209 471.692 321.418 471.877C322.614 472.927 323.576 474.155 324.393 475.463C324.589 475.774 325.197 476.113 325.293 476.367C341.03 467.483 359.676 461.605 378.23 459.716C412.439 456.234 470.168 484.758 523.639 514.886C530.034 509.435 536.472 503.991 542.859 498.535L542.864 498.543Z" fill="#914F2B"/>
<path d="M291.893 451.954C291.718 451.919 291.468 451.384 291.293 451.354C289.31 450.973 284.826 451.381 282.368 451.169C270.997 450.196 259.676 448.914 248.355 447.541C247.03 446.945 231.951 445.244 232.035 444.479C232.097 443.909 233.272 443.848 233.785 443.794C237.189 443.447 242.889 444.248 246.614 444.321C261.693 444.613 276.76 445.306 291.822 446.452L292.472 445.898C290.226 443.748 288.993 440.912 286.989 438.6C278.56 428.858 264.214 421.344 250.835 419.848C230.701 417.601 209.564 427.662 196.23 441.243C206.097 456.24 226.301 469.471 245.322 471.672C260.218 473.395 277.189 466.874 287.426 456.852C288.964 455.347 289.855 453.158 291.885 451.954H291.893Z" fill="#AADA38"/>
<path d="M320.818 471.287C315.797 467.624 303.609 466.554 297.334 467.116C272.864 469.313 254.522 486.687 248.284 508.056C247.768 509.829 245.759 519.763 246.672 520.717C248.193 522.306 262.355 524.703 265.297 524.926C293.659 527.065 321.297 510.356 325.034 483.24C325.18 482.194 325.526 476.985 325.293 476.377C325.197 476.127 324.589 475.788 324.393 475.472C309.364 485.706 293.718 494.867 277.539 503.396L274.514 504.562C284.447 496.687 294.809 489.246 305.143 481.898L321.418 471.887C321.209 471.702 321.034 471.444 320.818 471.287Z" fill="#289649"/>
<path d="M335.268 421.175C329.976 417.331 323.709 414.703 317.988 411.41C305.28 404.096 292.993 396.071 280.947 387.857C281.713 386.918 281.684 387.603 282.338 387.891C291.618 392.004 301.251 396.713 310.288 401.284C319.755 406.07 329.068 411.218 338.305 416.369C338.405 416.119 339.234 415.746 339.284 415.538C339.297 415.484 338.847 414.992 338.855 414.522C339.072 397.806 326.113 380.743 310.955 372.225C292.534 361.875 268.105 362.487 248.476 369.382C247.468 370.821 252.205 383.89 253.163 386.083C261.726 405.674 278.697 422.74 301.968 426.418C311.222 427.88 328.088 427.242 335.276 421.178L335.268 421.175Z" fill="#279649"/>
<path d="M338.302 416.365C329.064 411.214 319.752 406.066 310.285 401.28C301.248 396.713 291.614 392.004 282.335 387.887C281.681 387.599 281.714 386.914 280.943 387.853C292.989 396.067 305.277 404.092 317.985 411.406C323.706 414.699 329.973 417.327 335.264 421.171C335.373 421.078 335.489 420.99 335.589 420.894C337.448 419.128 337.481 418.435 338.298 416.365H338.302Z" fill="#036134"/>
<path d="M291.821 446.452C276.759 445.306 261.692 444.613 246.613 444.321C242.888 444.248 237.188 443.447 233.784 443.794C233.267 443.847 232.092 443.909 232.034 444.478C231.95 445.244 247.029 446.944 248.354 447.541C259.675 448.914 270.992 450.196 282.367 451.169C284.825 451.38 289.309 450.973 291.292 451.354C291.788 449.776 292.15 448.103 291.821 446.452Z" fill="#6EBD2F"/>
<path d="M324.393 475.473C323.576 474.165 322.614 472.938 321.418 471.888L305.143 481.898C294.809 489.247 284.447 496.688 274.514 504.563L277.539 503.397C293.718 494.868 309.364 485.711 324.393 475.473Z" fill="#036134"/>
<path d="M282.829 315.775C282.942 313.32 283.792 303.606 284.662 301.905C285.512 300.251 291.287 301.917 293.133 301.132C306.621 303.425 319.95 307.361 330.754 315.394C347.783 328.052 353.192 352.305 345.183 370.853C345.087 370.73 344.417 370.776 344.321 370.653C334.454 357.988 324.233 345.472 313.354 333.442C312.429 332.938 307.95 327.459 307.421 327.755C306.837 328.079 307.746 329.01 307.95 329.321C312.55 336.243 316.996 343.622 321.867 350.397C327.587 358.353 334.337 365.725 339.783 373.835C339.721 373.954 339.733 374.108 339.675 374.235C318.992 375.12 297.008 363.801 288.675 346.042C286.262 340.898 285.267 335.446 284.017 330.01C283.846 329.267 282.696 318.649 282.829 315.782V315.775Z" fill="#AADA38"/>
<path d="M339.788 373.83C334.342 365.724 327.596 358.349 321.871 350.392C317 343.621 312.555 336.238 307.955 329.317C307.746 329.005 306.838 328.078 307.425 327.751C307.959 327.455 312.434 332.937 313.359 333.437C324.234 345.464 334.459 357.979 344.325 370.649C343.888 372.13 340.363 372.753 339.788 373.827V373.83Z" fill="#6EBD2F"/>
<path d="M411.613 415.447C411.8 418.933 411.646 434.133 421.584 446.345C431.521 458.556 410.459 439.046 410.459 439.046C405.784 433.733 407.059 419.864 407.338 415.343C407.613 410.822 411.613 415.443 411.613 415.443V415.447Z" fill="#914F2B"/>
<path d="M407.128 417.429C408.086 412.766 407.811 407.926 408.211 403.19C409.107 392.667 410.67 382.164 412.461 371.741C413.42 371.891 412.907 372.111 412.924 372.622C413.17 379.871 413.103 387.554 412.932 394.81C412.753 402.416 412.249 410.045 411.72 417.636C411.936 417.609 412.92 417.49 413.265 417.329C425.603 411.584 433.561 397.48 434.478 385.003C435.59 369.841 426.549 354.778 414.591 344.929C413.178 344.802 405.261 352.362 403.99 353.732C392.632 365.978 386.082 382.591 391.57 398.438C393.753 404.74 400.153 415.062 407.128 417.425V417.429Z" fill="#279649"/>
<path d="M411.719 417.636C412.248 410.045 412.752 402.412 412.931 394.81C413.102 387.55 413.169 379.871 412.923 372.622C412.906 372.111 413.419 371.891 412.46 371.741C410.673 382.164 409.106 392.671 408.21 403.189C407.806 407.925 408.081 412.769 407.127 417.428C407.231 417.463 407.339 417.505 407.444 417.536C409.394 418.075 409.914 417.855 411.719 417.636Z" fill="#036134"/>
</g>
</svg>
