<svg width="189" height="43" viewBox="0 0 189 43" fill="none" xmlns="http://www.w3.org/2000/svg">
<path d="M167.38 0.472656H21.5462C10.0403 0.472656 0.712891 9.80006 0.712891 21.306C0.712891 32.8119 10.0403 42.1393 21.5462 42.1393H167.38C178.885 42.1393 188.213 32.8119 188.213 21.306C188.213 9.80006 178.885 0.472656 167.38 0.472656Z" fill="#02B14F"/>
<path d="M41.3716 18.1607C40.0674 18.1607 39.2424 18.8274 39.2424 19.7315C39.2382 20.7482 40.3424 21.1358 41.1716 21.3483L42.2091 21.6191C43.555 21.9524 45.2633 22.6899 45.2633 24.6024C45.2633 26.4024 43.8299 27.7107 41.3341 27.7107C38.8382 27.7107 37.4674 26.5232 37.3633 24.6024H38.9674C39.0591 25.7565 40.0883 26.3066 41.3216 26.3066C42.6841 26.3066 43.6757 25.6232 43.6757 24.5857C43.6757 23.644 42.8008 23.2691 41.6633 22.9691L40.4091 22.6274C38.7049 22.1649 37.6466 21.3024 37.6466 19.8232C37.6466 17.994 39.2799 16.7773 41.4091 16.7773C43.5383 16.7773 45.0674 18.0107 45.1133 19.7107H43.5674C43.4549 18.7315 42.5883 18.1607 41.3716 18.1607Z" fill="white"/>
<path d="M48.5871 27.5344H47.0371V16.9219H48.5662V20.8719H48.6663C49.0413 20.0135 49.7871 19.4719 51.0246 19.4719C52.6621 19.4719 53.7496 20.4886 53.7496 22.4719V27.5344H52.1996V22.6594C52.1996 21.4927 51.5621 20.8136 50.4954 20.8136C49.4287 20.8136 48.5871 21.5385 48.5871 22.8093V27.5344Z" fill="white"/>
<path d="M55.4416 25.2857C55.4416 23.4773 56.9875 23.0815 58.4916 22.9065C59.9208 22.7398 60.5041 22.7523 60.5041 22.1856V22.1482C60.5041 21.2482 59.9916 20.7232 58.9916 20.7232C57.9916 20.7232 57.3708 21.269 57.1417 21.8315L55.6833 21.4981C56.2 20.0481 57.5292 19.4648 58.9667 19.4648C60.2292 19.4648 62.0541 19.9273 62.0541 22.244V27.5273H60.5417V26.4398H60.4792C60.1833 27.0357 59.4416 27.7024 58.125 27.7024C56.6125 27.7024 55.4375 26.844 55.4375 25.2773L55.4416 25.2857ZM60.5083 24.6648V23.6399C60.2833 23.8607 59.0916 23.9981 58.5916 24.0648C57.6958 24.1856 56.9583 24.4815 56.9583 25.3065C56.9583 26.0732 57.5916 26.4689 58.4666 26.4689C59.7583 26.4689 60.5083 25.6107 60.5083 24.6648Z" fill="white"/>
<path d="M64.1172 19.574H65.613V20.8364H65.6964C65.988 19.9822 66.7839 19.4531 67.7172 19.4531C67.913 19.4531 68.2213 19.4697 68.3755 19.4906V20.9739C68.2505 20.9364 67.888 20.8823 67.5672 20.8823C66.4672 20.8823 65.6672 21.6323 65.6672 22.674V27.5364H64.1172V19.578V19.574Z" fill="white"/>
<path d="M69.0723 23.606C69.0723 21.1601 70.5347 19.4727 72.7514 19.4727C74.5556 19.4727 76.2764 20.5976 76.2764 23.4726V24.0226H70.6181C70.6597 25.556 71.5514 26.4185 72.8764 26.4185C73.7556 26.4185 74.4306 26.0351 74.7098 25.2851L76.1764 25.5476C75.8222 26.8434 74.5973 27.6977 72.8598 27.6977C70.5139 27.6977 69.0723 26.081 69.0723 23.6101V23.606ZM74.7556 22.8601C74.7514 21.6434 73.9639 20.7517 72.7598 20.7517C71.5556 20.7517 70.6806 21.7309 70.6181 22.8601H74.7514H74.7556Z" fill="white"/>
<path d="M85.5763 20.818H83.943V25.1972C83.943 26.093 84.393 26.2596 84.8972 26.2596C85.1472 26.2596 85.3388 26.2138 85.443 26.193L85.7221 27.4721C85.5388 27.5388 85.2096 27.6346 84.718 27.6388C83.4971 27.6638 82.393 26.9637 82.3972 25.5179V20.818H81.2305V19.5763H82.3972V17.668H83.9471V19.5763H85.5805V20.818H85.5763Z" fill="white"/>
<path d="M88.9953 27.5344H87.4453V16.9219H88.9745V20.8719H89.0745C89.4495 20.0135 90.1953 19.4719 91.4328 19.4719C93.0703 19.4719 94.1578 20.4886 94.1578 22.4719V27.5344H92.6078V22.6594C92.6078 21.4927 91.9703 20.8136 90.9037 20.8136C89.837 20.8136 88.9953 21.5385 88.9953 22.8093V27.5344Z" fill="white"/>
<path d="M96.0254 17.4253C96.0254 16.9169 96.467 16.4961 97.0045 16.4961C97.542 16.4961 97.9838 16.9169 97.9838 17.4253C97.9838 17.9336 97.5379 18.3461 97.0045 18.3461C96.4712 18.3461 96.0254 17.9294 96.0254 17.4253ZM96.2212 19.5753H97.7713V27.5336H96.2212V19.5753Z" fill="white"/>
<path d="M104.412 21.7684C104.229 21.2351 103.787 20.7018 102.821 20.7018C101.942 20.7018 101.275 21.1351 101.283 21.7476C101.279 22.2851 101.658 22.581 102.533 22.7893L103.796 23.081C105.258 23.4185 105.971 24.1143 105.971 25.2351C105.971 26.6768 104.637 27.6977 102.717 27.6977C100.929 27.6977 99.7583 26.906 99.5 25.4935L100.996 25.2643C101.183 26.0476 101.779 26.4477 102.704 26.4477C103.721 26.4477 104.379 25.9643 104.379 25.3476C104.379 24.8518 104.021 24.5101 103.254 24.3393L101.908 24.0435C100.417 23.7101 99.7333 22.9601 99.7333 21.831C99.7333 20.4226 101.008 19.4727 102.804 19.4727C104.6 19.4727 105.492 20.281 105.817 21.5185L104.412 21.7684Z" fill="white"/>
<path d="M111.172 23.606C111.172 21.1601 112.634 19.4727 114.851 19.4727C116.655 19.4727 118.376 20.5976 118.376 23.4726V24.0226H112.718C112.759 25.556 113.651 26.4185 114.976 26.4185C115.855 26.4185 116.53 26.0351 116.809 25.2851L118.276 25.5476C117.922 26.8434 116.697 27.6977 114.959 27.6977C112.614 27.6977 111.172 26.081 111.172 23.6101V23.606ZM116.855 22.8601C116.851 21.6434 116.064 20.7517 114.859 20.7517C113.655 20.7517 112.78 21.7309 112.718 22.8601H116.851H116.855Z" fill="white"/>
<path d="M123.885 20.8175H122.168V27.5341H120.614V20.8175H119.385V19.5758H120.614V18.6549C120.614 17.1632 121.718 16.4258 122.976 16.4258C123.601 16.4258 124.056 16.555 124.272 16.6383L123.91 17.8925C123.764 17.8466 123.535 17.7716 123.214 17.7716C122.456 17.7716 122.168 18.1549 122.168 18.859V19.5758H123.885V20.8175Z" fill="white"/>
<path d="M129.264 20.8175H127.547V27.5341H125.993V20.8175H124.764V19.5758H125.993V18.6549C125.993 17.1632 127.097 16.4258 128.355 16.4258C128.98 16.4258 129.435 16.555 129.651 16.6383L129.289 17.8925C129.143 17.8466 128.914 17.7716 128.593 17.7716C127.835 17.7716 127.547 18.1549 127.547 18.859V19.5758H129.264V20.8175Z" fill="white"/>
<path d="M130.184 23.5934C130.184 21.1184 131.65 19.4727 133.892 19.4727C136.134 19.4727 137.6 21.1143 137.6 23.5934C137.6 26.0726 136.134 27.6977 133.892 27.6977C131.65 27.6977 130.184 26.0559 130.184 23.5934ZM136.038 23.5893C136.038 22.0643 135.354 20.7726 133.896 20.7726C132.438 20.7726 131.746 22.0684 131.746 23.5893C131.746 25.1101 132.429 26.3976 133.896 26.3976C135.363 26.3976 136.038 25.1184 136.038 23.5893Z" fill="white"/>
<path d="M139.326 19.574H140.822V20.8364H140.905C141.197 19.9822 141.993 19.4531 142.926 19.4531C143.122 19.4531 143.43 19.4697 143.584 19.4906V20.9739C143.459 20.9364 143.097 20.8823 142.776 20.8823C141.676 20.8823 140.876 21.6323 140.876 22.674V27.5364H139.326V19.578V19.574Z" fill="white"/>
<path d="M149.11 20.818H147.476V25.1972C147.476 26.093 147.926 26.2596 148.43 26.2596C148.68 26.2596 148.872 26.2138 148.976 26.193L149.255 27.4721C149.072 27.5388 148.743 27.6346 148.251 27.6388C147.03 27.6638 145.926 26.9637 145.93 25.5179V20.818H144.764V19.5763H145.93V17.668H147.48V19.5763H149.114V20.818H149.11Z" fill="white"/>
</svg>
