<svg width="188" height="43" viewBox="0 0 188 43" fill="none" xmlns="http://www.w3.org/2000/svg">
<path d="M166.819 0.828125H20.9857C9.47974 0.828125 0.152344 10.1555 0.152344 21.6615C0.152344 33.1674 9.47974 42.4948 20.9857 42.4948H166.819C178.325 42.4948 187.652 33.1674 187.652 21.6615C187.652 10.1555 178.325 0.828125 166.819 0.828125Z" fill="#02B14F"/>
<path d="M40.8052 18.5162C39.501 18.5162 38.676 19.1828 38.676 20.087C38.6719 21.1037 39.776 21.4911 40.6052 21.7036L41.6427 21.9744C42.9885 22.3078 44.6969 23.0453 44.6969 24.9578C44.6969 26.7578 43.2636 28.0661 40.7677 28.0661C38.2719 28.0661 36.901 26.8787 36.7969 24.9578H38.4011C38.4927 26.112 39.5219 26.6619 40.7552 26.6619C42.1177 26.6619 43.1094 25.9786 43.1094 24.9411C43.1094 23.9995 42.2344 23.6245 41.0969 23.3245L39.8427 22.9828C38.1386 22.5203 37.0802 21.6578 37.0802 20.1787C37.0802 18.3495 38.7136 17.1328 40.8427 17.1328C42.9719 17.1328 44.5011 18.3662 44.5469 20.0662H43.001C42.8885 19.087 42.0219 18.5162 40.8052 18.5162Z" fill="white"/>
<path d="M48.0207 27.8898H46.4707V17.2773H47.9998V21.2273H48.0998C48.4748 20.369 49.2207 19.8273 50.4582 19.8273C52.0957 19.8273 53.1832 20.8439 53.1832 22.8273V27.8898H51.6332V23.0148C51.6332 21.8481 50.9957 21.1689 49.929 21.1689C48.8623 21.1689 48.0207 21.894 48.0207 23.1648V27.8898Z" fill="white"/>
<path d="M54.8811 25.6411C54.8811 23.8328 56.427 23.437 57.9312 23.262C59.3603 23.0953 59.9436 23.1078 59.9436 22.5412V22.5036C59.9436 21.6036 59.4311 21.0787 58.4311 21.0787C57.4311 21.0787 56.8103 21.6245 56.5812 22.187L55.1228 21.8537C55.6395 20.4037 56.9687 19.8203 58.4062 19.8203C59.6687 19.8203 61.4936 20.2828 61.4936 22.5994V27.8829H59.9811V26.7953H59.9186C59.6228 27.3911 58.8812 28.0578 57.5645 28.0578C56.052 28.0578 54.877 27.1995 54.877 25.6328L54.8811 25.6411ZM59.9478 25.0203V23.9953C59.7228 24.2162 58.5311 24.3537 58.0311 24.4203C57.1353 24.5412 56.3978 24.837 56.3978 25.662C56.3978 26.4287 57.0311 26.8245 57.9061 26.8245C59.1978 26.8245 59.9478 25.9661 59.9478 25.0203Z" fill="white"/>
<path d="M63.5547 19.9294H65.0505V21.192H65.1338C65.4255 20.3378 66.2214 19.8086 67.1547 19.8086C67.3505 19.8086 67.6588 19.8253 67.813 19.8461V21.3295C67.688 21.292 67.3255 21.2378 67.0046 21.2378C65.9046 21.2378 65.1047 21.9878 65.1047 23.0294V27.892H63.5547V19.9336V19.9294Z" fill="white"/>
<path d="M68.5098 23.9614C68.5098 21.5156 69.9722 19.8281 72.1889 19.8281C73.9931 19.8281 75.7139 20.9532 75.7139 23.8282V24.3781H70.0556C70.0972 25.9114 70.9889 26.7739 72.3139 26.7739C73.193 26.7739 73.8681 26.3906 74.1472 25.6406L75.6139 25.9032C75.2597 27.199 74.0348 28.0531 72.2973 28.0531C69.9514 28.0531 68.5098 26.4364 68.5098 23.9656V23.9614ZM74.1931 23.2157C74.1889 21.999 73.4014 21.1073 72.1973 21.1073C70.9931 21.1073 70.1181 22.0865 70.0556 23.2157H74.1889H74.1931Z" fill="white"/>
<path d="M85.0099 21.1735H83.3766V25.5526C83.3766 26.4485 83.8266 26.6152 84.3307 26.6152C84.5807 26.6152 84.7724 26.5694 84.8766 26.5485L85.1557 27.8276C84.9724 27.8943 84.6432 27.9902 84.1516 27.9943C82.9307 28.0193 81.8266 27.3193 81.8307 25.8735V21.1735H80.6641V19.9318H81.8307V18.0234H83.3807V19.9318H85.0141V21.1735H85.0099Z" fill="white"/>
<path d="M88.4289 27.8898H86.8789V17.2773H88.408V21.2273H88.5081C88.8831 20.369 89.6289 19.8273 90.8664 19.8273C92.5039 19.8273 93.5914 20.8439 93.5914 22.8273V27.8898H92.0414V23.0148C92.0414 21.8481 91.4039 21.1689 90.3372 21.1689C89.2705 21.1689 88.4289 21.894 88.4289 23.1648V27.8898Z" fill="white"/>
<path d="M95.4648 17.7768C95.4648 17.2685 95.9065 16.8477 96.444 16.8477C96.9815 16.8477 97.4232 17.2685 97.4232 17.7768C97.4232 18.2851 96.9773 18.6976 96.444 18.6976C95.9107 18.6976 95.4648 18.281 95.4648 17.7768ZM95.6607 19.9268H97.2107V27.8852H95.6607V19.9268Z" fill="white"/>
<path d="M103.852 22.124C103.669 21.5906 103.227 21.0573 102.26 21.0573C101.381 21.0573 100.714 21.4906 100.723 22.1031C100.719 22.6406 101.098 22.9364 101.973 23.1448L103.235 23.4364C104.698 23.7739 105.41 24.4698 105.41 25.5907C105.41 27.0323 104.077 28.0531 102.156 28.0531C100.369 28.0531 99.1978 27.2614 98.9395 25.8489L100.435 25.6198C100.623 26.4031 101.219 26.8031 102.144 26.8031C103.16 26.8031 103.819 26.3198 103.819 25.7032C103.819 25.2073 103.46 24.8656 102.694 24.6948L101.348 24.3989C99.8561 24.0656 99.1728 23.3156 99.1728 22.1864C99.1728 20.7781 100.448 19.8281 102.244 19.8281C104.039 19.8281 104.931 20.6364 105.256 21.8739L103.852 22.124Z" fill="white"/>
<path d="M110.609 23.9614C110.609 21.5156 112.072 19.8281 114.289 19.8281C116.093 19.8281 117.814 20.9532 117.814 23.8282V24.3781H112.155C112.197 25.9114 113.089 26.7739 114.414 26.7739C115.293 26.7739 115.968 26.3906 116.247 25.6406L117.714 25.9032C117.359 27.199 116.134 28.0531 114.397 28.0531C112.051 28.0531 110.609 26.4364 110.609 23.9656V23.9614ZM116.293 23.2157C116.289 21.999 115.501 21.1073 114.297 21.1073C113.093 21.1073 112.218 22.0865 112.155 23.2157H116.289H116.293Z" fill="white"/>
<path d="M123.322 21.1729H121.606V27.8896H120.051V21.1729H118.822V19.9313H120.051V19.0105C120.051 17.5188 121.156 16.7812 122.414 16.7812C123.039 16.7812 123.493 16.9104 123.71 16.9938L123.347 18.2479C123.201 18.2021 122.972 18.1271 122.651 18.1271C121.893 18.1271 121.606 18.5105 121.606 19.2146V19.9313H123.322V21.1729Z" fill="white"/>
<path d="M128.701 21.1729H126.985V27.8896H125.43V21.1729H124.201V19.9313H125.43V19.0105C125.43 17.5188 126.535 16.7812 127.793 16.7812C128.418 16.7812 128.872 16.9104 129.089 16.9938L128.726 18.2479C128.58 18.2021 128.351 18.1271 128.03 18.1271C127.272 18.1271 126.985 18.5105 126.985 19.2146V19.9313H128.701V21.1729Z" fill="white"/>
<path d="M129.623 23.9451C129.623 21.4701 131.09 19.8242 133.331 19.8242C135.573 19.8242 137.04 21.4659 137.04 23.9451C137.04 26.4243 135.573 28.0492 133.331 28.0492C131.09 28.0492 129.623 26.4076 129.623 23.9451ZM135.477 23.9409C135.477 22.4159 134.794 21.1243 133.336 21.1243C131.877 21.1243 131.186 22.4201 131.186 23.9409C131.186 25.4618 131.869 26.7493 133.336 26.7493C134.802 26.7493 135.477 25.4701 135.477 23.9409Z" fill="white"/>
<path d="M138.76 19.9294H140.256V21.192H140.339C140.631 20.3378 141.426 19.8086 142.36 19.8086C142.556 19.8086 142.864 19.8253 143.018 19.8461V21.3295C142.893 21.292 142.531 21.2378 142.21 21.2378C141.11 21.2378 140.31 21.9878 140.31 23.0294V27.892H138.76V19.9336V19.9294Z" fill="white"/>
<path d="M148.543 21.1735H146.91V25.5526C146.91 26.4485 147.36 26.6152 147.864 26.6152C148.114 26.6152 148.306 26.5694 148.41 26.5485L148.689 27.8276C148.506 27.8943 148.176 27.9902 147.685 27.9943C146.464 28.0193 145.36 27.3193 145.364 25.8735V21.1735H144.197V19.9318H145.364V18.0234H146.914V19.9318H148.547V21.1735H148.543Z" fill="white"/>
</svg>
