<svg width="226" height="59" viewBox="0 0 226 59" fill="none" xmlns="http://www.w3.org/2000/svg">
<path d="M196.145 0.109375H29.9827C13.9641 0.109375 0.978516 13.095 0.978516 29.1136C0.978516 45.1321 13.9641 58.1177 29.9827 58.1177H196.145C212.164 58.1177 225.149 45.1321 225.149 29.1136C225.149 13.095 212.164 0.109375 196.145 0.109375Z" fill="#ABD64F"/>
<path d="M52.6329 25.6422C49.8746 25.6422 47.8496 23.5796 47.8496 20.1921C47.8496 16.8046 49.8746 14.7422 52.6329 14.7422C55.3913 14.7422 57.4121 16.8005 57.4121 20.1921C57.4121 23.5838 55.3788 25.6422 52.6329 25.6422ZM52.6329 16.2005C50.8038 16.2005 49.4413 17.6046 49.4413 20.1921C49.4413 22.7796 50.8038 24.1838 52.6329 24.1838C54.4621 24.1838 55.8246 22.7796 55.8246 20.1921C55.8246 17.6046 54.4579 16.2005 52.6329 16.2005Z" fill="#005339"/>
<path d="M59.2656 17.5349H60.7614V18.7974H60.8448C61.1364 17.9433 61.9322 17.4141 62.8656 17.4141C63.0614 17.4141 63.3698 17.4308 63.5239 17.4516V18.9349C63.3989 18.8974 63.0364 18.8432 62.7156 18.8432C61.6156 18.8432 60.8156 19.5932 60.8156 20.6349V25.4974H59.2656V17.5391V17.5349Z" fill="#005339"/>
<path d="M73.2914 19.7294C73.108 19.1961 72.6664 18.6627 71.6997 18.6627C70.8206 18.6627 70.1539 19.0961 70.1622 19.7086C70.158 20.2461 70.5372 20.5419 71.4122 20.7502L72.6747 21.0419C74.1372 21.3794 74.8497 22.0752 74.8497 23.196C74.8497 24.6377 73.5164 25.6586 71.5956 25.6586C69.8081 25.6586 68.6372 24.8669 68.3789 23.4544L69.8747 23.2252C70.0622 24.0086 70.658 24.4086 71.583 24.4086C72.5997 24.4086 73.2581 23.9252 73.2581 23.3085C73.2581 22.8127 72.8997 22.4711 72.133 22.3002L70.7872 22.0044C69.2955 21.6711 68.6122 20.9211 68.6122 19.7919C68.6122 18.3836 69.8872 17.4336 71.683 17.4336C73.4789 17.4336 74.3705 18.2419 74.6955 19.4794L73.2914 19.7294Z" fill="#005339"/>
<path d="M78.0969 25.4953H76.5469V14.8828H78.076V18.8328H78.176C78.551 17.9745 79.2969 17.4329 80.5344 17.4329C82.1719 17.4329 83.2594 18.4495 83.2594 20.4328V25.4953H81.7094V20.6203C81.7094 19.4537 81.0718 18.7745 80.0052 18.7745C78.9385 18.7745 78.0969 19.4995 78.0969 20.7704V25.4953Z" fill="#005339"/>
<path d="M84.9534 23.2427C84.9534 21.4344 86.4993 21.0385 88.0034 20.8635C89.4326 20.6969 90.0159 20.7094 90.0159 20.1427V20.1052C90.0159 19.2052 89.5034 18.6802 88.5034 18.6802C87.5034 18.6802 86.8826 19.226 86.6534 19.7885L85.1951 19.4552C85.7118 18.0052 87.0409 17.4219 88.4784 17.4219C89.7409 17.4219 91.5659 17.8843 91.5659 20.201V25.4843H90.0534V24.3969H89.9909C89.6951 24.9927 88.9534 25.6594 87.6367 25.6594C86.1242 25.6594 84.9492 24.801 84.9492 23.2344L84.9534 23.2427ZM90.0201 22.6219V21.5969C89.7951 21.8177 88.6034 21.9552 88.1034 22.0219C87.2076 22.1427 86.4701 22.4385 86.4701 23.2635C86.4701 24.0302 87.1034 24.4261 87.9784 24.4261C89.2701 24.4261 90.0201 23.5677 90.0201 22.6219Z" fill="#005339"/>
<path d="M93.6289 17.5349H95.1247V18.7974H95.208C95.4997 17.9433 96.2956 17.4141 97.2289 17.4141C97.4247 17.4141 97.7331 17.4308 97.8872 17.4516V18.9349C97.7622 18.8974 97.3998 18.8432 97.0789 18.8432C95.9789 18.8432 95.1789 19.5932 95.1789 20.6349V25.4974H93.6289V17.5391V17.5349Z" fill="#005339"/>
<path d="M98.584 21.5708C98.584 19.125 100.046 17.4375 102.263 17.4375C104.067 17.4375 105.788 18.5624 105.788 21.4374V21.9875H100.13C100.171 23.5208 101.063 24.3833 102.388 24.3833C103.267 24.3833 103.942 24 104.221 23.25L105.688 23.5124C105.334 24.8083 104.109 25.6625 102.371 25.6625C100.026 25.6625 98.584 24.0458 98.584 21.575V21.5708ZM104.267 20.825C104.263 19.6083 103.476 18.7166 102.271 18.7166C101.067 18.7166 100.192 19.6958 100.13 20.825H104.263H104.267Z" fill="#005339"/>
<path d="M111.17 15.3862C111.17 14.8779 111.612 14.457 112.149 14.457C112.687 14.457 113.128 14.8779 113.128 15.3862C113.128 15.8945 112.682 16.3071 112.149 16.3071C111.616 16.3071 111.17 15.8904 111.17 15.3862ZM111.366 17.5363H112.916V25.4945H111.366V17.5363Z" fill="#005339"/>
<path d="M118.713 18.7789H117.08V23.1581C117.08 24.0539 117.53 24.2206 118.034 24.2206C118.284 24.2206 118.476 24.1747 118.58 24.1539L118.859 25.4331C118.675 25.4998 118.346 25.5955 117.855 25.5997C116.634 25.6247 115.53 24.9248 115.534 23.4789V18.7789H114.367V17.5373H115.534V15.6289H117.084V17.5373H118.717V18.7789H118.713Z" fill="#005339"/>
<path d="M128.07 18.7784H126.354V25.495H124.799V18.7784H123.57V17.5367H124.799V16.6159C124.799 15.1243 125.904 14.3867 127.162 14.3867C127.787 14.3867 128.241 14.5159 128.458 14.5992L128.095 15.8534C127.949 15.8076 127.72 15.7325 127.399 15.7325C126.641 15.7325 126.354 16.1159 126.354 16.8201V17.5367H128.07V18.7784Z" fill="#005339"/>
<path d="M128.99 21.5544C128.99 19.0794 130.457 17.4336 132.699 17.4336C134.94 17.4336 136.407 19.0752 136.407 21.5544C136.407 24.0335 134.94 25.6586 132.699 25.6586C130.457 25.6586 128.99 24.0169 128.99 21.5544ZM134.844 21.5502C134.844 20.0252 134.161 18.7335 132.703 18.7335C131.244 18.7335 130.553 20.0294 130.553 21.5502C130.553 23.071 131.236 24.3585 132.703 24.3585C134.169 24.3585 134.844 23.0794 134.844 21.5502Z" fill="#005339"/>
<path d="M138.129 17.5349H139.625V18.7974H139.708C140 17.9433 140.796 17.4141 141.729 17.4141C141.925 17.4141 142.233 17.4308 142.387 17.4516V18.9349C142.262 18.8974 141.9 18.8432 141.579 18.8432C140.479 18.8432 139.679 19.5932 139.679 20.6349V25.4974H138.129V17.5391V17.5349Z" fill="#005339"/>
<path d="M143.242 17.5352H144.842L146.401 23.381H146.48L148.046 17.5352H149.646L151.201 23.356H151.28L152.83 17.5352H154.43L152.092 25.4934H150.513L148.896 19.7477H148.776L147.159 25.4934H145.584L143.242 17.5352Z" fill="#005339"/>
<path d="M155.516 23.2427C155.516 21.4344 157.062 21.0385 158.566 20.8635C159.995 20.6969 160.578 20.7094 160.578 20.1427V20.1052C160.578 19.2052 160.066 18.6802 159.066 18.6802C158.066 18.6802 157.445 19.226 157.216 19.7885L155.758 19.4552C156.274 18.0052 157.603 17.4219 159.041 17.4219C160.303 17.4219 162.128 17.8843 162.128 20.201V25.4843H160.616V24.3969H160.553C160.258 24.9927 159.516 25.6594 158.199 25.6594C156.687 25.6594 155.512 24.801 155.512 23.2344L155.516 23.2427ZM160.583 22.6219V21.5969C160.358 21.8177 159.166 21.9552 158.666 22.0219C157.77 22.1427 157.033 22.4385 157.033 23.2635C157.033 24.0302 157.666 24.4261 158.541 24.4261C159.833 24.4261 160.583 23.5677 160.583 22.6219Z" fill="#005339"/>
<path d="M164.188 17.5349H165.683V18.7974H165.767C166.058 17.9433 166.854 17.4141 167.788 17.4141C167.983 17.4141 168.292 17.4308 168.446 17.4516V18.9349C168.321 18.8974 167.958 18.8432 167.638 18.8432C166.538 18.8432 165.737 19.5932 165.737 20.6349V25.4974H164.188V17.5391V17.5349Z" fill="#005339"/>
<path d="M169.152 21.5325C169.152 18.9534 170.569 17.4326 172.49 17.4326C173.973 17.4326 174.502 18.3325 174.782 18.8284H174.873V14.8867H176.423V25.4992H174.911V24.2617H174.782C174.502 24.7701 173.932 25.6576 172.482 25.6576C170.548 25.6576 169.157 24.1117 169.157 21.5367L169.152 21.5325ZM174.898 21.516C174.898 19.8535 174.173 18.7492 172.819 18.7492C171.465 18.7492 170.715 19.9368 170.715 21.516C170.715 23.0951 171.436 24.3285 172.819 24.3285C174.202 24.3285 174.898 23.1868 174.898 21.516Z" fill="#005339"/>
<path d="M57.745 32.4961H59.1658C58.1449 33.8628 57.3407 36.642 57.3407 39.1045C57.3407 41.567 58.1449 44.3461 59.1658 45.7169H57.745C56.4283 43.8711 55.7324 41.7045 55.7324 39.1045C55.7324 36.5045 56.4283 34.3419 57.745 32.4961Z" fill="#005339"/>
<path d="M64.5119 36.7906H62.8785V41.1698C62.8785 42.0657 63.3285 42.2323 63.8327 42.2323C64.0827 42.2323 64.2743 42.1864 64.3785 42.1656L64.6577 43.4448C64.4744 43.5115 64.1452 43.6073 63.6535 43.6114C62.4327 43.6364 61.3285 42.9365 61.3327 41.4907V36.7906H60.166V35.549H61.3327V33.6406H62.8827V35.549H64.516V36.7906H64.5119Z" fill="#005339"/>
<path d="M67.9328 43.507H66.3828V32.8945H67.912V36.8445H68.012C68.387 35.9862 69.1328 35.4446 70.3703 35.4446C72.0078 35.4446 73.0953 36.4612 73.0953 38.4446V43.507H71.5453V38.632C71.5453 37.4654 70.9078 36.7862 69.8411 36.7862C68.7744 36.7862 67.9328 37.5113 67.9328 38.7821V43.507Z" fill="#005339"/>
<path d="M74.7874 41.2583C74.7874 39.45 76.3332 39.0542 77.8374 38.8792C79.2665 38.7125 79.8498 38.725 79.8498 38.1583V38.1208C79.8498 37.2208 79.3373 36.6958 78.3373 36.6958C77.3373 36.6958 76.7165 37.2416 76.4874 37.8041L75.029 37.4708C75.5457 36.0208 76.8749 35.4375 78.3124 35.4375C79.5749 35.4375 81.3999 35.9 81.3999 38.2166V43.5H79.8874V42.4125H79.8249C79.529 43.0083 78.7873 43.675 77.4707 43.675C75.9582 43.675 74.7832 42.8166 74.7832 41.25L74.7874 41.2583ZM79.854 40.6375V39.6125C79.629 39.8333 78.4373 39.9708 77.9373 40.0375C77.0415 40.1583 76.304 40.4542 76.304 41.2792C76.304 42.0458 76.9373 42.4417 77.8123 42.4417C79.104 42.4417 79.854 41.5833 79.854 40.6375Z" fill="#005339"/>
<path d="M87.1798 36.7906H85.5465V41.1698C85.5465 42.0657 85.9965 42.2323 86.5007 42.2323C86.7507 42.2323 86.9423 42.1864 87.0465 42.1656L87.3257 43.4448C87.1423 43.5115 86.8131 43.6073 86.3215 43.6114C85.1006 43.6364 83.9965 42.9365 84.0007 41.4907V36.7906H82.834V35.549H84.0007V33.6406H85.5507V35.549H87.184V36.7906H87.1798Z" fill="#005339"/>
<path d="M92.1289 35.5469H93.7289L95.2872 41.3927H95.3664L96.933 35.5469H98.5331L100.087 41.3677H100.166L101.716 35.5469H103.316L100.979 43.5051H99.3997L97.7831 37.7594H97.6622L96.0455 43.5051H94.4706L92.1289 35.5469Z" fill="#005339"/>
<path d="M104.174 39.5661C104.174 37.0911 105.641 35.4453 107.882 35.4453C110.124 35.4453 111.591 37.0869 111.591 39.5661C111.591 42.0453 110.124 43.6703 107.882 43.6703C105.641 43.6703 104.174 42.0286 104.174 39.5661ZM110.028 39.5619C110.028 38.0369 109.345 36.7453 107.886 36.7453C106.428 36.7453 105.736 38.0411 105.736 39.5619C105.736 41.0828 106.42 42.3703 107.886 42.3703C109.353 42.3703 110.028 41.0911 110.028 39.5619Z" fill="#005339"/>
<path d="M113.316 35.5505H114.812V36.813H114.896C115.187 35.9589 115.983 35.4297 116.916 35.4297C117.112 35.4297 117.421 35.4464 117.575 35.4672V36.9505C117.45 36.913 117.087 36.8588 116.766 36.8588C115.666 36.8588 114.866 37.6088 114.866 38.6505V43.513H113.316V35.5547V35.5505Z" fill="#005339"/>
<path d="M118.92 32.8945H120.47V38.9154H120.603L123.774 35.5487H125.628L122.403 38.9654L125.845 43.5112H123.945L121.241 39.9154L120.47 40.6863V43.5112H118.92V32.8987V32.8945Z" fill="#005339"/>
<path d="M131.592 37.7411C131.409 37.2078 130.967 36.6745 130.001 36.6745C129.121 36.6745 128.455 37.1078 128.463 37.7203C128.459 38.2578 128.838 38.5536 129.713 38.762L130.976 39.0536C132.438 39.3911 133.151 40.087 133.151 41.2078C133.151 42.6495 131.817 43.6703 129.896 43.6703C128.109 43.6703 126.938 42.8786 126.68 41.4661L128.176 41.2369C128.363 42.0203 128.959 42.4203 129.884 42.4203C130.901 42.4203 131.559 41.9369 131.559 41.3203C131.559 40.8244 131.201 40.4828 130.434 40.312L129.088 40.0161C127.596 39.6828 126.913 38.9328 126.913 37.8036C126.913 36.3953 128.188 35.4453 129.984 35.4453C131.78 35.4453 132.671 36.2536 132.996 37.4911L131.592 37.7411Z" fill="#005339"/>
<path d="M142.424 36.7906H140.791V41.1698C140.791 42.0657 141.241 42.2323 141.745 42.2323C141.995 42.2323 142.186 42.1864 142.291 42.1656L142.57 43.4448C142.386 43.5115 142.057 43.6073 141.566 43.6114C140.345 43.6364 139.241 42.9365 139.245 41.4907V36.7906H138.078V35.549H139.245V33.6406H140.795V35.549H142.428V36.7906H142.424Z" fill="#005339"/>
<path d="M143.691 39.5661C143.691 37.0911 145.158 35.4453 147.4 35.4453C149.641 35.4453 151.108 37.0869 151.108 39.5661C151.108 42.0453 149.641 43.6703 147.4 43.6703C145.158 43.6703 143.691 42.0286 143.691 39.5661ZM149.546 39.5619C149.546 38.0369 148.862 36.7453 147.404 36.7453C145.946 36.7453 145.254 38.0411 145.254 39.5619C145.254 41.0828 145.937 42.3703 147.404 42.3703C148.871 42.3703 149.546 41.0911 149.546 39.5619Z" fill="#005339"/>
<path d="M152.475 39.5661C152.475 37.0911 153.941 35.4453 156.183 35.4453C158.425 35.4453 159.891 37.0869 159.891 39.5661C159.891 42.0453 158.425 43.6703 156.183 43.6703C153.941 43.6703 152.475 42.0286 152.475 39.5661ZM158.329 39.5619C158.329 38.0369 157.645 36.7453 156.187 36.7453C154.729 36.7453 154.037 38.0411 154.037 39.5619C154.037 41.0828 154.72 42.3703 156.187 42.3703C157.654 42.3703 158.329 41.0911 158.329 39.5619Z" fill="#005339"/>
<path d="M161.68 42.5693C161.68 42.0026 162.146 41.5401 162.717 41.5401C163.288 41.5401 163.755 42.0068 163.755 42.5693C163.755 43.1318 163.284 43.6069 162.717 43.6069C162.151 43.6069 161.68 43.1443 161.68 42.5693ZM163.438 40.4568H162.005L161.871 32.8984H163.576L163.442 40.4568H163.438Z" fill="#005339"/>
<path d="M166.866 45.7169H165.445C166.466 44.3503 167.27 41.5711 167.27 39.1086C167.27 36.6461 166.466 33.8628 165.445 32.4961H166.866C168.183 34.3419 168.879 36.5086 168.879 39.1086C168.879 41.7086 168.183 43.8711 166.866 45.7169Z" fill="#005339"/>
</svg>
